<svg xmlns:xlink="http://www.w3.org/1999/xlink" xmlns="http://www.w3.org/2000/svg" width="105" height="97" viewBox="0 0 105 97" fill="none">
<g clip-path="url(#clip0)">
<path d="M6.36227 7.7468C4.67548 7.74872 3.05833 8.41964 1.86559 9.61239C0.672843 10.8051 0.00191857 12.4223 0 14.1091V87.4063C0.00193509 89.0931 0.672869 90.7102 1.86561 91.9029C3.05835 93.0957 4.6755 93.7666 6.36227 93.7685H60.1311C61.8179 93.7666 63.435 93.0956 64.6277 91.9029C65.8204 90.7102 66.4914 89.0931 66.4933 87.4063V14.1091C66.4914 12.4223 65.8205 10.8051 64.6277 9.61241C63.435 8.41967 61.8179 7.74873 60.1311 7.7468H6.36227Z" fill="#3F3D56"/>
<path d="M63.1848 12.2658H3.30853V89.2496H63.1848V12.2658Z" fill="white"/>
<path d="M55.3573 26.0647H11.136V28.9698H55.3573V26.0647Z" fill="#6C63FF"/>
<path d="M55.3573 33.8115H11.136V36.7166H55.3573V33.8115Z" fill="#6C63FF"/>
<path d="M55.3573 41.5583H11.136V44.4634H55.3573V41.5583Z" fill="#6C63FF"/>
<path d="M55.3573 49.3051H11.136V52.2102H55.3573V49.3051Z" fill="#6C63FF"/>
<path d="M55.3573 57.0519H11.136V59.957H55.3573V57.0519Z" fill="#6C63FF"/>
<path d="M55.3573 64.7987H11.136V67.7037H55.3573V64.7987Z" fill="#6C63FF"/>
<path d="M55.3573 72.5455H11.136V75.4505H55.3573V72.5455Z" fill="#6C63FF"/>
<path d="M55.9798 7.38442L12.1302 15.409L22.4476 71.787L66.2971 63.7624L55.9798 7.38442Z" fill="#E6E6E6"/>
<path d="M52.0968 18.5389L19.712 24.4654L20.1013 26.5929L52.4861 20.6664L52.0968 18.5389Z" fill="#6C63FF"/>
<path d="M53.135 24.2122L20.7501 30.1387L21.1395 32.2662L53.5243 26.3397L53.135 24.2122Z" fill="#6C63FF"/>
<path d="M54.1733 29.8854L21.7885 35.812L22.1778 37.9394L54.5626 32.0129L54.1733 29.8854Z" fill="#6C63FF"/>
<path d="M55.2114 35.5587L22.8265 41.4852L23.2159 43.6127L55.6007 37.6862L55.2114 35.5587Z" fill="#6C63FF"/>
<path d="M56.2492 41.232L23.8645 47.1584L24.2538 49.2859L56.6385 43.3594L56.2492 41.232Z" fill="#6C63FF"/>
<path d="M57.2879 46.9052L24.9031 52.8317L25.2924 54.9592L57.6772 49.0327L57.2879 46.9052Z" fill="#6C63FF"/>
<path d="M58.3261 52.5784L25.9413 58.5049L26.3306 60.6324L58.7154 54.7059L58.3261 52.5784Z" fill="#6C63FF"/>
<path d="M87.0171 69.0576L74.6096 71.3281L77.529 87.2806L89.9364 85.01L87.0171 69.0576Z" fill="#E6E6E6"/>
<path d="M85.9184 72.2138L76.755 73.8907L76.8652 74.4927L86.0286 72.8158L85.9184 72.2138Z" fill="white"/>
<path d="M86.2121 73.8191L77.0487 75.496L77.1589 76.098L86.3223 74.4211L86.2121 73.8191Z" fill="white"/>
<path d="M86.506 75.4243L77.3425 77.1013L77.4527 77.7033L86.6161 76.0263L86.506 75.4243Z" fill="white"/>
<path d="M86.7998 77.0296L77.6364 78.7065L77.7465 79.3085L86.9099 77.6316L86.7998 77.0296Z" fill="white"/>
<path d="M87.0936 78.6348L77.9302 80.3118L78.0403 80.9138L87.2038 79.2368L87.0936 78.6348Z" fill="white"/>
<path d="M87.3873 80.2401L78.2239 81.9171L78.334 82.5191L87.4975 80.8421L87.3873 80.2401Z" fill="white"/>
<path d="M87.681 81.8454L78.5176 83.5223L78.6277 84.1243L87.7912 82.4474L87.681 81.8454Z" fill="white"/>
<path d="M44.3331 4.03479H39.0568V2.95461C39.0568 2.171 38.7455 1.41948 38.1914 0.865384C37.6373 0.311288 36.8858 -4.76837e-07 36.1022 -4.76837e-07H30.3912C29.6076 2.2751e-07 28.8561 0.311289 28.302 0.865385C27.7479 1.41948 27.4366 2.171 27.4366 2.95461V4.03479H22.1602C21.7722 4.03479 21.388 4.11121 21.0296 4.25969C20.6711 4.40818 20.3454 4.62581 20.071 4.90017C19.7966 5.17453 19.579 5.50024 19.4305 5.85871C19.282 6.21718 19.2056 6.60139 19.2056 6.98939V15.1708H47.2877V6.98939C47.2877 6.60139 47.2113 6.21718 47.0628 5.85871C46.9144 5.50024 46.6967 5.17453 46.4224 4.90017C46.148 4.62581 45.8223 4.40818 45.4638 4.25969C45.1054 4.11121 44.7211 4.03479 44.3331 4.03479V4.03479Z" fill="#3F3D56"/>
<path d="M31.3526 83.6513C32.225 83.0543 33.1216 82.4334 34.1576 82.162C35.1028 81.9144 36.1881 81.9799 36.9357 82.672C37.539 83.2305 37.7938 84.0889 37.3468 84.8238C37.2509 84.9914 37.1205 85.1368 36.9644 85.2504C36.8082 85.364 36.6298 85.4432 36.4408 85.4829C36.2582 85.507 36.0725 85.4845 35.901 85.4175C35.7294 85.3505 35.5776 85.2411 35.4597 85.0996C35.2253 84.8406 35.0851 84.4578 35.2096 84.1164C35.3406 83.7574 35.6909 83.5379 36.035 83.4154C36.4355 83.2885 36.848 83.2033 37.266 83.1611L38.9779 82.9267L45.985 81.9675L53.7883 80.8992C53.8499 80.8818 53.9023 80.8408 53.9339 80.785C53.9656 80.7293 53.974 80.6633 53.9574 80.6014C53.9389 80.5404 53.8977 80.4888 53.8423 80.4574C53.7868 80.4259 53.7214 80.4169 53.6596 80.4324L38.1326 82.558C37.571 82.6348 37.0014 82.6899 36.4456 82.8028C36.0081 82.8736 35.5933 83.0459 35.2344 83.306C34.4906 83.8948 34.5437 84.9364 35.2282 85.5524C35.9211 86.1761 36.9257 86.0687 37.5338 85.3799C37.8412 85.0313 38.0237 84.5902 38.0524 84.1263C38.0811 83.6624 37.9544 83.2022 37.6923 82.8183C37.0285 81.8175 35.819 81.433 34.6634 81.5749C33.3268 81.7391 32.1938 82.4903 31.1082 83.2332C30.8526 83.4082 31.0945 83.8279 31.3526 83.6513V83.6513Z" fill="#3F3D56"/>
<path d="M85.8345 65.708L85.9959 67.3219C85.9959 67.3219 85.0276 70.8725 87.1257 70.8725C89.2238 70.8725 87.6099 67.3219 87.6099 67.3219L87.7713 66.0308L85.8345 65.708Z" fill="#A0616A"/>
<path d="M100.494 60.3311L99.7531 61.7741C99.7531 61.7741 97.0125 64.2304 98.7746 65.3693C100.537 66.5082 101.109 62.6502 101.109 62.6502L101.945 61.6534L100.494 60.3311Z" fill="#A0616A"/>
<path d="M88.4169 67.1605L90.6764 82.4927L91.8061 93.4673C91.8061 93.4673 92.7744 95.8882 96.0023 93.7901L95.5181 87.4958L95.1953 81.8471C95.1953 81.8471 94.8725 76.3598 94.5497 75.3915C94.227 74.4231 94.7111 71.1953 94.7111 71.1953L96.0023 65.8694L88.4169 67.1605Z" fill="#2F2E41"/>
<path d="M92.1288 93.1445L90.8377 94.5971C90.8377 94.5971 88.901 93.9515 88.4168 95.2426C87.9327 96.5337 92.1288 96.8565 92.1288 96.8565C92.1288 96.8565 96.4864 97.1793 96.4864 96.8565C96.4864 96.5337 96.3696 94.0651 95.7825 93.9276C95.1953 93.7901 92.1288 93.1445 92.1288 93.1445Z" fill="#2F2E41"/>
<path d="M94.5497 66.3536L96.8092 82.4927L97.9389 93.4673C97.9389 93.4673 98.9073 95.8882 102.135 93.7901L101.651 87.4958L101.328 81.8471C101.328 81.8471 101.005 76.3598 100.683 75.3915C100.36 74.4231 100.844 71.1953 100.844 71.1953L100.521 65.2238L94.5497 66.3536Z" fill="#2F2E41"/>
<path d="M98.2617 93.1445L96.9705 94.5971C96.9705 94.5971 95.0338 93.9515 94.5496 95.2426C94.0655 96.5337 98.2617 96.8565 98.2617 96.8565C98.2617 96.8565 102.619 97.1793 102.619 96.8565C102.619 96.5337 102.502 94.0651 101.915 93.9276C101.328 93.7901 98.2617 93.1445 98.2617 93.1445Z" fill="#2F2E41"/>
<path d="M89.7078 40.8537C91.5796 40.8537 93.0971 39.3363 93.0971 37.4645C93.0971 35.5926 91.5796 34.0752 89.7078 34.0752C87.836 34.0752 86.3186 35.5926 86.3186 37.4645C86.3186 39.3363 87.836 40.8537 89.7078 40.8537Z" fill="#A0616A"/>
<path d="M92.2095 38.9976L93.662 41.4186L89.95 43.0325L89.4658 40.1274L92.2095 38.9976Z" fill="#A0616A"/>
<path d="M94.0655 41.1765C94.0655 41.1765 90.6763 40.8537 89.3852 42.9518L86.1997 45.3728C85.9417 45.5688 85.7402 45.8296 85.6157 46.1287C85.4911 46.4278 85.4479 46.7545 85.4904 47.0757L88.2555 67.9674L92.2902 67.806L98.9073 66.5149L100.844 66.0307L99.8756 57.477C99.8756 57.477 98.7459 54.0878 100.037 51.8283L99.3915 43.9201L94.8725 42.1448L94.0655 41.1765Z" fill="#575A89"/>
<path d="M86.4801 46.0182L86.238 45.6147C86.238 45.6147 85.9152 45.6147 85.9152 46.2603C85.9152 46.9059 85.3504 60.8662 85.3504 60.8662L85.189 66.1922L88.2554 66.5149L89.3851 56.5087L88.901 49.8916L86.4801 46.0182Z" fill="#575A89"/>
<path d="M97.132 43.5973L99.3914 43.9201C100.272 44.8421 101.031 45.8725 101.651 46.9866C102.619 48.7619 105.524 52.1511 104.879 54.7334C104.233 57.3156 102.296 61.996 102.296 61.996L99.23 60.7048C99.23 60.7048 101.651 55.0561 101.49 54.572C101.328 54.0878 99.3914 51.1827 99.3914 51.1827L97.132 43.5973Z" fill="#575A89"/>
<path d="M87.3678 35.6085C87.3678 35.6085 84.6241 35.4471 86.3994 33.6718C86.3994 33.6718 87.8519 33.0262 88.4975 33.349C88.4975 33.349 89.4659 32.7034 89.4659 33.0262C89.4659 33.0262 92.8551 32.0578 93.3392 35.4471C93.8234 38.8363 93.0165 40.4502 93.0165 40.4502L90.757 40.2888C90.757 40.2888 91.2412 37.5451 89.4659 37.8679C89.4659 37.8679 88.0133 38.3521 87.8519 37.8679C87.6905 37.3838 87.3678 35.6085 87.3678 35.6085Z" fill="#2F2E41"/>
<path opacity="0.2" d="M88.6589 66.2728L90.1115 56.5894L89.143 50.6178L89.4658 57.113L88.4976 66.2728H88.6589Z" fill="black"/>
</g>
<defs>
<clipPath id="clip0">
<rect width="104.971" height="97" fill="white"/>
</clipPath>
</defs>
</svg>