<svg xmlns:xlink="http://www.w3.org/1999/xlink" xmlns="http://www.w3.org/2000/svg" width="101" height="97" viewBox="0 0 101 97" fill="none">
<path d="M31.8132 48.4522C31.8132 33.4515 31.8132 18.4655 31.8132 3.46481C31.8132 2.53091 31.959 1.68457 32.6148 0.984154C33.2414 0.298327 34.0429 0.00648537 34.9464 0.00648537C41.4169 0.00648537 47.8728 -0.00810671 54.3432 0.00648537C56.3543 0.00648537 57.5347 1.29059 57.5493 3.33348C57.5493 33.4369 57.5493 63.555 57.5493 93.6584C57.5493 95.7743 56.3252 97 54.2412 97C47.9165 97 41.5918 97 35.2671 97C33.0082 97 31.8278 95.8326 31.8278 93.5709C31.8132 78.541 31.8132 63.4966 31.8132 48.4522ZM34.2469 48.5397C34.2469 63.5112 34.2469 78.4827 34.2469 93.4541C34.2469 94.5048 34.3198 94.5777 35.3691 94.5777C41.5772 94.5777 47.7853 94.5777 53.9935 94.5777C54.999 94.5777 55.1156 94.461 55.1156 93.4395C55.1156 63.4674 55.1156 33.5099 55.1156 3.53777C55.1156 2.5601 55.0136 2.45795 54.008 2.45795C47.7999 2.45795 41.5918 2.45795 35.3836 2.45795C34.2761 2.45795 34.2469 2.48714 34.2469 3.62532C34.2469 18.6114 34.2469 33.5683 34.2469 48.5397Z" fill="#2F2E41"/>
<path d="M67.4588 29.03C69.2076 29.0592 71.0438 29.9785 72.6177 31.5253C72.7489 31.6566 72.88 31.8025 73.0112 31.9339C74.8911 33.7579 77.1645 33.7579 79.0007 31.8901C80.0208 30.8541 81.1284 29.9493 82.5128 29.4824C85.5878 28.4318 88.2401 29.2343 90.5572 31.394C90.8778 31.7004 91.1838 32.036 91.5336 32.3133C93.1657 33.6265 95.0748 33.5974 96.6924 32.2695C96.911 32.0944 97.1005 31.8755 97.3045 31.6858C98.0769 30.9854 99.1261 30.9708 99.8548 31.6566C100.598 32.357 100.642 33.4369 99.9422 34.254C97.494 37.1286 93.3698 37.7999 90.1637 35.8299C89.4788 35.4068 88.8375 34.8523 88.2546 34.2832C86.1707 32.1965 83.8973 32.1819 81.857 34.2686C78.3304 37.8728 73.7253 37.8874 70.1694 34.2832C68.1292 32.2111 65.9578 32.1819 63.8739 34.181C63.014 34.9982 61.9356 35.0566 61.1778 34.3124C60.4055 33.5682 60.4492 32.4154 61.2799 31.5545C62.8392 29.9348 64.894 29.03 67.4588 29.03Z" fill="#C6C6C6"/>
<path d="M66.8469 60.0675C69.2223 60.0967 71.0585 61.0306 72.6324 62.5773C72.9676 62.913 73.3028 63.2486 73.6817 63.5258C75.2119 64.6348 76.9461 64.6056 78.4471 63.4383C78.7823 63.1756 79.0737 62.8692 79.3798 62.5773C82.7024 59.2503 87.3658 59.2358 90.6885 62.5627C90.8342 62.7087 90.9799 62.8692 91.1402 63.0151C92.9619 64.7661 95.1333 64.7662 96.9986 63.0735C97.3484 62.7524 97.771 62.4168 98.2082 62.2855C98.9951 62.0374 99.7966 62.446 100.19 63.1318C100.627 63.8906 100.511 64.7078 99.8695 65.3936C96.8237 68.7206 92.0146 68.8957 88.7211 65.8022C88.5025 65.5979 88.2839 65.3644 88.0653 65.1601C86.1708 63.2924 83.8974 63.2778 82.0175 65.1747C80.8516 66.3567 79.5838 67.3198 77.9662 67.7575C75.1536 68.5017 72.7344 67.6992 70.6068 65.7876C70.4028 65.5979 70.2133 65.3936 70.0093 65.1893C68.1294 63.3069 65.8705 63.2778 63.9615 65.1455C63.466 65.6271 62.9413 65.9773 62.2127 65.8897C61.5132 65.7876 60.974 65.4082 60.7262 64.737C60.4785 64.0511 60.5659 63.3799 61.076 62.8254C62.679 61.0889 64.6027 60.0967 66.8469 60.0675Z" fill="#C6C6C6"/>
<path d="M66.847 44.556C69.0912 44.5852 70.8254 45.4024 72.341 46.7886C72.5159 46.9491 72.6762 47.1242 72.8365 47.2847C74.8621 49.3422 77.1501 49.3422 79.1758 47.2556C80.7351 45.665 82.5422 44.6436 84.8156 44.5706C87.0598 44.4977 88.9252 45.3878 90.5282 46.8908C90.7322 47.0805 90.9217 47.2993 91.1257 47.489C92.9328 49.2401 95.1187 49.2401 96.9695 47.5474C97.3193 47.2264 97.7273 46.8908 98.1791 46.7448C98.9369 46.4822 99.753 46.8908 100.176 47.5912C100.598 48.3062 100.511 49.1379 99.9133 49.8092C97.1881 52.9173 92.7142 53.3842 89.4352 50.8744C88.9835 50.5388 88.5754 50.1448 88.1819 49.7362C86.1709 47.7225 83.8683 47.7079 81.8864 49.7654C80.3562 51.3559 78.5637 52.3774 76.334 52.4795C73.8712 52.5817 71.8747 51.5748 70.1988 49.8238C69.3972 48.992 68.4937 48.35 67.2987 48.2478C65.9288 48.1311 64.8359 48.7148 63.9178 49.6633C63.4223 50.1594 62.8539 50.4512 62.1544 50.3199C61.4549 50.1886 60.9449 49.78 60.7408 49.0942C60.5368 48.4229 60.6388 47.7809 61.1343 47.2556C62.6936 45.5629 64.6318 44.5706 66.847 44.556Z" fill="#C6C6C6"/>
<path d="M21.8889 43.9141C23.2587 43.9287 24.3954 45.096 24.3809 46.4531C24.3663 47.8247 23.215 48.9629 21.8452 48.9483C20.4753 48.9337 19.3386 47.781 19.3532 46.4093C19.3677 45.0523 20.5336 43.8995 21.8889 43.9141Z" fill="#575A89"/>
<path d="M2.53586 43.9286C1.13684 43.9286 0.0147134 42.8342 0.000140357 41.4479C-0.0144327 40.0763 1.10769 38.9381 2.49214 38.9235C3.87658 38.9089 5.01328 40.0325 5.02785 41.4041C5.04243 42.7904 3.9203 43.914 2.53586 43.9286Z" fill="#575A89"/>
<path d="M21.8743 58.7396C21.8743 60.1258 20.7522 61.2494 19.3677 61.2494C17.9833 61.2494 16.8757 60.1404 16.8757 58.7396C16.8757 57.3388 17.9833 56.2298 19.3677 56.2298C20.7522 56.2152 21.8743 57.3533 21.8743 58.7396Z" fill="#575A89"/>
<path d="M18.581 73.0398C18.5955 71.639 19.7177 70.5592 21.1312 70.5883C22.5157 70.6175 23.5941 71.7411 23.565 73.142C23.5358 74.5282 22.3991 75.6372 21.0147 75.608C19.6302 75.5788 18.5664 74.4552 18.581 73.0398Z" fill="#575A89"/>
<path d="M14.3547 20.8877C12.9557 20.8877 11.8481 19.7787 11.8481 18.3925C11.8481 17.0062 12.9703 15.8972 14.3547 15.8972C15.7392 15.8972 16.8613 17.0208 16.8613 18.3925C16.8759 19.7787 15.7537 20.8877 14.3547 20.8877Z" fill="#575A89"/>
<path d="M5.78575 26.2284C5.78575 27.6293 4.69277 28.7528 3.30833 28.7528C1.92389 28.7528 0.816331 27.6438 0.801758 26.2576C0.801758 24.8568 1.89474 23.7332 3.27918 23.7332C4.66362 23.7186 5.78575 24.8276 5.78575 26.2284Z" fill="#575A89"/>
<path d="M11.3816 39.2445C9.99712 39.23 8.875 38.0772 8.91872 36.7055C8.94786 35.3193 10.07 34.2395 11.469 34.2541C12.8534 34.2686 13.961 35.4068 13.9319 36.7931C13.9027 38.1793 12.7806 39.2591 11.3816 39.2445Z" fill="#575A89"/>
<path d="M5.7129 58.7396C4.32846 58.7104 3.20633 57.5431 3.26462 56.186C3.30834 54.7997 4.44504 53.7199 5.84406 53.7491C7.2285 53.7783 8.33606 54.9311 8.29234 56.3027C8.24862 57.7036 7.12649 58.7688 5.7129 58.7396Z" fill="#575A89"/>
<path d="M21.8598 33.758C20.4608 33.758 19.3386 32.6344 19.3386 31.2628C19.3386 29.8765 20.4607 28.7529 21.8452 28.7529C23.2296 28.7529 24.3663 29.8765 24.3518 31.2482C24.3663 32.649 23.2588 33.758 21.8598 33.758Z" fill="#575A89"/>
<path d="M8.14639 80.3797C8.16096 78.9788 9.26852 77.899 10.6821 77.9282C12.0811 77.9428 13.1595 79.0664 13.1304 80.4672C13.1158 81.868 11.9937 82.9479 10.5947 82.9187C9.18108 82.8895 8.13182 81.7951 8.14639 80.3797Z" fill="#575A89"/>
<path d="M5.78568 69.5815C5.7711 70.9824 4.64898 72.0622 3.24996 72.0476C1.85094 72.033 0.787109 70.924 0.787109 69.5086C0.801682 68.1077 1.90924 67.0279 3.32283 67.0425C4.72184 67.0571 5.80025 68.1807 5.78568 69.5815Z" fill="#575A89"/>
<path d="M34.2468 48.5398C34.2468 33.5683 34.2468 18.5968 34.2468 3.62537C34.2468 2.48719 34.276 2.45801 35.3835 2.45801C41.5917 2.45801 47.7998 2.45801 54.0079 2.45801C55.0135 2.45801 55.1155 2.54556 55.1155 3.53782C55.1155 33.5099 55.1155 63.4675 55.1155 93.4396C55.1155 94.4756 54.9989 94.5777 53.9934 94.5777C47.7852 94.5777 41.5771 94.5777 35.369 94.5777C34.3197 94.5777 34.2468 94.5048 34.2468 93.4542C34.2468 78.4827 34.2468 63.5112 34.2468 48.5398ZM39.7263 48.5106C39.6972 47.4891 39.3765 46.5261 38.7353 45.6651C37.5986 44.1767 37.5986 42.9656 38.7208 41.4918C40.0469 39.7407 40.0615 37.5665 38.7353 35.8009C37.5841 34.2541 37.5841 33.1451 38.7499 31.5692C40.0469 29.8327 40.0469 27.6585 38.7499 25.9366C37.5841 24.3899 37.5841 23.2517 38.7499 21.7049C40.0178 20.0123 40.1343 17.7943 38.8228 16.2037C37.6715 14.8029 37.6861 13.0664 38.8373 11.651C40.1198 10.0751 40.0032 7.76952 38.7791 6.20817C38.4584 5.785 38.065 5.53694 37.5695 5.90174C37.0594 6.28113 37.1906 6.71889 37.5112 7.18584C38.3564 8.41157 38.3273 9.71027 37.4821 10.863C35.879 13.0373 35.8936 14.8321 37.4966 17.0501C38.3127 18.1737 38.4147 19.6037 37.5112 20.6543C35.9227 22.5075 35.9519 25.1633 37.5112 26.9873C38.3856 28.0087 38.3856 29.5117 37.5258 30.5186C35.9664 32.328 35.9227 34.9983 37.5112 36.8515C38.4002 37.9021 38.3273 39.3468 37.5112 40.4558C35.8936 42.6592 35.879 44.4832 37.4821 46.6428C38.3564 47.8248 38.3564 49.1964 37.4821 50.3784C35.9082 52.5088 35.9082 54.4058 37.4675 56.5216C38.3564 57.7036 38.3564 59.0752 37.4821 60.2426C35.8936 62.3876 35.8936 64.27 37.4529 66.3859C38.3564 67.597 38.3564 68.9541 37.4529 70.1652C35.9082 72.2373 35.9082 74.178 37.4529 76.2501C38.3564 77.4758 38.371 78.8329 37.4675 80.0295C35.9227 82.1015 35.9082 84.0569 37.4383 86.1143C38.3419 87.3109 38.371 88.595 37.5112 89.8353C37.176 90.3023 37.0594 90.7546 37.5695 91.1194C38.0795 91.4842 38.4876 91.207 38.8082 90.7546C40.0469 89.0911 40.0178 86.8877 38.7208 85.1805C37.5986 83.6775 37.5841 82.4809 38.7062 81.0071C40.0323 79.2415 40.0469 77.0673 38.7353 75.3162C37.5841 73.7695 37.5841 72.6459 38.7499 71.0845C40.0469 69.3335 40.0469 67.1884 38.7499 65.452C37.5841 63.8906 37.5841 62.767 38.7353 61.2203C40.0615 59.44 40.0469 57.2804 38.7208 55.5294C37.5986 54.0556 37.5986 52.859 38.7353 51.356C39.362 50.5243 39.6826 49.5904 39.7263 48.5106ZM53.0315 9.00985C53.017 7.97381 52.6963 7.03992 52.0697 6.20817C51.7491 5.785 51.341 5.55153 50.8601 5.91633C50.3938 6.26654 50.4667 6.7043 50.7727 7.15665C51.7054 8.5429 51.6617 9.71027 50.6415 11.0381C49.2571 12.8622 49.2425 15.0218 50.627 16.8458C51.7054 18.2758 51.7054 19.5015 50.6124 20.9608C49.2425 22.7848 49.2571 24.9444 50.6561 26.7684C51.6908 28.1109 51.6908 29.4242 50.6707 30.7666C49.228 32.6636 49.228 34.7794 50.6853 36.6764C51.6908 37.9897 51.6908 39.303 50.6853 40.6163C49.228 42.5278 49.228 44.6291 50.6707 46.5261C51.6908 47.8831 51.6908 49.1672 50.6561 50.5243C49.2425 52.3921 49.2425 54.5079 50.6561 56.3903C51.6908 57.762 51.6908 59.0315 50.6707 60.3885C49.228 62.2855 49.2425 64.3868 50.6853 66.2983C51.6908 67.6116 51.6762 68.9395 50.6853 70.2382C49.228 72.1497 49.228 74.2656 50.6707 76.148C51.6762 77.4613 51.6908 78.7891 50.6998 80.0878C49.2134 82.0286 49.2134 84.1152 50.6998 86.056C51.6471 87.2963 51.6908 88.5366 50.7873 89.8353C50.4667 90.3169 50.3501 90.7692 50.8601 91.1194C51.3848 91.4842 51.7782 91.1924 52.0989 90.74C53.3376 89.0619 53.2938 86.8731 51.9677 85.1075C50.9039 83.6921 50.9039 82.4372 51.9531 81.0509C53.3521 79.2269 53.3521 77.0673 51.9823 75.2433C50.8893 73.7986 50.8893 72.5729 51.9823 71.1283C53.3376 69.3335 53.3521 67.1884 51.9968 65.379C50.8893 63.8906 50.8893 62.7087 52.0114 61.2057C53.3376 59.4255 53.3376 57.2804 52.0114 55.5148C50.8893 54.0264 50.8893 52.8298 51.9968 51.3414C53.3521 49.5466 53.3376 47.387 51.9823 45.5922C50.8893 44.1621 50.8893 42.9218 51.9823 41.4772C53.3376 39.6824 53.3521 37.5228 51.9968 35.7279C50.8893 34.2541 50.8893 33.0576 52.0114 31.5546C53.3376 29.7744 53.3376 27.6293 52.0114 25.8637C50.8893 24.3607 50.8893 23.1787 51.9968 21.6904C53.3521 19.8955 53.3521 17.7213 51.9823 15.9411C50.8893 14.5111 50.8893 13.2707 51.9823 11.8261C52.6672 11.0381 53.017 10.0897 53.0315 9.00985ZM46.3862 38.6463C46.3571 37.5957 46.0364 36.6326 45.3807 35.7717C44.2585 34.2979 44.2585 33.0868 45.3807 31.5984C46.6922 29.8619 46.7214 27.7023 45.4244 25.9658C44.2148 24.3169 44.2148 23.2955 45.439 21.632C46.6777 19.9539 46.6777 17.7943 45.439 16.1162C44.2148 14.4673 44.2148 13.4167 45.4244 11.7823C46.6777 10.0751 46.6777 7.78411 45.4098 6.20817C45.0746 5.79959 44.6812 5.55153 44.2002 5.91633C43.7339 6.26654 43.8068 6.68971 44.1128 7.15665C45.0455 8.52831 45.0018 9.71027 43.9816 11.0381C42.5826 12.8767 42.5972 15.051 44.0108 16.9042C45.0163 18.2029 45.0163 19.5453 44.0399 20.844C42.5681 22.7848 42.5681 24.8568 44.0545 26.8122C45.0163 28.0963 45.0163 29.4242 44.0545 30.7083C42.5681 32.6636 42.5681 34.7357 44.0399 36.6764C45.0309 37.9751 45.0163 39.303 44.0108 40.6309C42.5826 42.4987 42.5681 44.6145 43.9816 46.4969C45.0309 47.9123 45.0309 49.1672 43.9816 50.5535C42.5972 52.3775 42.5972 54.5371 43.9671 56.3611C45.0309 57.762 45.0309 59.0315 43.9816 60.4177C42.5681 62.2855 42.5681 64.4014 43.9962 66.2837C45.0163 67.6408 45.0163 68.9395 43.9962 70.282C42.5826 72.1497 42.5681 74.2802 43.9816 76.148C45.0163 77.505 45.0163 78.8183 43.9962 80.1462C42.5535 82.0432 42.5535 84.1444 44.0108 86.056C44.958 87.2963 45.0163 88.5658 44.1274 89.8353C43.8068 90.3023 43.6756 90.7254 44.1711 91.134C44.5791 91.4696 45.0455 91.3091 45.4681 90.7254C46.6922 89.0328 46.6339 86.8731 45.3224 85.1513C44.244 83.7504 44.244 82.4809 45.2932 81.0947C46.7068 79.2269 46.7214 77.1256 45.2932 75.2433C44.244 73.8424 44.244 72.6021 45.3224 71.1867C46.7068 69.3627 46.6922 67.203 45.3078 65.379C44.244 63.9928 44.244 62.7087 45.3078 61.3224C46.7068 59.4984 46.7068 57.3534 45.3224 55.5148C44.2294 54.0702 44.244 52.859 45.3369 51.3998C46.6922 49.605 46.6922 47.4454 45.3369 45.6505C44.244 44.2059 44.2294 42.9656 45.3224 41.5356C46.0073 40.6746 46.3571 39.7262 46.3862 38.6463Z" fill="white"/>
<path d="M39.7265 48.5105C39.6827 49.5903 39.3621 50.5242 38.7355 51.3706C37.5988 52.8736 37.5988 54.0701 38.7209 55.5439C40.0616 57.3095 40.0616 59.4546 38.7355 61.2348C37.5842 62.7816 37.5842 63.9052 38.7501 65.4665C40.0471 67.203 40.0471 69.3626 38.7501 71.0991C37.5842 72.6604 37.5842 73.784 38.7355 75.3308C40.0471 77.0818 40.0471 79.256 38.7063 81.0217C37.5842 82.4955 37.5988 83.692 38.7209 85.195C40.0033 86.9023 40.0325 89.1203 38.8084 90.7692C38.4732 91.2215 38.0797 91.4988 37.5696 91.134C37.0596 90.7692 37.1762 90.3168 37.5113 89.8499C38.3857 88.6095 38.342 87.3254 37.4385 86.1289C35.9083 84.0714 35.9083 82.1161 37.4676 80.044C38.3712 78.8474 38.3566 77.4758 37.4531 76.2646C35.9083 74.1926 35.9083 72.2518 37.4531 70.1798C38.3566 68.954 38.3566 67.6115 37.4531 66.4004C35.8937 64.2991 35.8937 62.4022 37.4822 60.2571C38.3566 59.0752 38.342 57.7181 37.4676 56.5362C35.8937 54.4349 35.9083 52.5233 37.4822 50.3929C38.3566 49.2255 38.3566 47.8393 37.4822 46.6573C35.8792 44.4977 35.8937 42.6591 37.5113 40.4703C38.3274 39.3613 38.4149 37.9167 37.5113 36.8661C35.9229 35.0129 35.9666 32.3425 37.5259 30.5331C38.4003 29.5262 38.4003 28.0233 37.5113 27.0018C35.952 25.1778 35.9229 22.522 37.5113 20.6689C38.4149 19.6182 38.3129 18.1882 37.4968 17.0646C35.8792 14.8466 35.8792 13.0518 37.4822 10.8776C38.3274 9.7248 38.3566 8.44069 37.5113 7.20037C37.1907 6.73342 37.0596 6.28107 37.5696 5.91627C38.0506 5.56606 38.444 5.81412 38.7792 6.2227C40.0033 7.78405 40.1199 10.0896 38.8375 11.6655C37.6862 13.081 37.6717 14.8174 38.8229 16.2183C40.1345 17.8088 40.0179 20.0414 38.7501 21.7195C37.5988 23.2662 37.5988 24.4044 38.7501 25.9512C40.0471 27.673 40.0471 29.8473 38.7501 31.5837C37.5842 33.1451 37.5842 34.2541 38.7355 35.8154C40.0471 37.5811 40.0471 39.7699 38.7209 41.5063C37.5988 42.9801 37.5988 44.1913 38.7355 45.6797C39.3767 46.526 39.6973 47.4891 39.7265 48.5105Z" fill="#3166CD"/>
<path d="M53.0316 9.00975C53.0171 10.0896 52.6527 11.038 52.0115 11.899C50.9185 13.3436 50.9185 14.5839 52.0115 16.0139C53.3668 17.7942 53.3814 19.9684 52.0261 21.7632C50.9185 23.237 50.9185 24.4336 52.0407 25.9366C53.3668 27.7022 53.3668 29.8472 52.0407 31.6275C50.9185 33.1304 50.9185 34.327 52.0261 35.8008C53.3814 37.5956 53.3668 39.7553 52.0115 41.5501C50.9185 42.9947 50.9185 44.235 52.0115 45.665C53.3668 47.4599 53.3814 49.6195 52.0261 51.4143C50.9185 52.9027 50.9185 54.0993 52.0407 55.5876C53.3668 57.3533 53.3668 59.4983 52.0407 61.2786C50.9185 62.7815 50.9185 63.9635 52.0261 65.4519C53.3814 67.2613 53.3814 69.4063 52.0115 71.2012C50.9185 72.6458 50.9185 73.8715 52.0115 75.3161C53.3814 77.1401 53.3814 79.2998 51.9824 81.1238C50.9185 82.51 50.9331 83.7649 51.997 85.1804C53.3231 86.946 53.3814 89.1348 52.1281 90.8129C51.7929 91.2653 51.3995 91.5571 50.8894 91.1923C50.3793 90.8275 50.4959 90.3751 50.8165 89.9082C51.7055 88.6095 51.6618 87.3692 50.7291 86.1289C49.2426 84.1881 49.2426 82.1014 50.7291 80.1607C51.7201 78.862 51.7055 77.5341 50.6999 76.2208C49.2572 74.3385 49.2572 72.2226 50.7145 70.311C51.7201 68.9978 51.7201 67.6845 50.7145 66.3712C49.2572 64.4596 49.2572 62.3584 50.6999 60.4614C51.7201 59.1043 51.7201 57.8348 50.6854 56.4632C49.2718 54.5954 49.2718 52.4649 50.6854 50.5972C51.7201 49.2401 51.7201 47.956 50.6999 46.5989C49.2572 44.6874 49.2572 42.6007 50.7145 40.6891C51.7201 39.3759 51.7201 38.0626 50.7145 36.7493C49.2572 34.8523 49.2572 32.7365 50.6999 30.8395C51.7201 29.4824 51.7201 28.1837 50.6854 26.8413C49.2864 25.0173 49.2718 22.8576 50.6417 21.0336C51.7346 19.5744 51.7492 18.3487 50.6562 16.9187C49.2718 15.1092 49.2864 12.935 50.6708 11.111C51.6909 9.78313 51.7346 8.61576 50.802 7.22952C50.4959 6.77716 50.4085 6.3394 50.8894 5.98919C51.3703 5.62439 51.7638 5.85786 52.099 6.28103C52.711 7.03982 53.0171 7.97371 53.0316 9.00975Z" fill="#3166CD"/>
<path d="M46.3861 38.6462C46.357 39.7261 46.0072 40.6745 45.3515 41.5355C44.2585 42.9655 44.2585 44.2058 45.366 45.6504C46.7213 47.4453 46.7213 49.6049 45.366 51.3997C44.2585 52.8589 44.2585 54.0701 45.3515 55.5147C46.7359 57.3533 46.7359 59.4837 45.3369 61.3223C44.273 62.7086 44.273 63.9927 45.3369 65.3789C46.7359 67.2029 46.7359 69.3626 45.3515 71.1866C44.273 72.602 44.273 73.8423 45.3223 75.2432C46.7359 77.1255 46.7359 79.2268 45.3223 81.0946C44.273 82.4808 44.2876 83.7503 45.3515 85.1512C46.663 86.873 46.7213 89.0327 45.4972 90.7254C45.0746 91.309 44.6082 91.4695 44.2002 91.1339C43.7047 90.7253 43.8359 90.3022 44.1565 89.8352C45.0308 88.5657 44.9871 87.3108 44.0399 86.0559C42.5826 84.1443 42.5826 82.0431 44.0253 80.1461C45.0454 78.8036 45.0308 77.5049 44.0107 76.1479C42.5971 74.2801 42.5971 72.1496 44.0253 70.2819C45.0454 68.9248 45.0454 67.6407 44.0253 66.2836C42.6117 64.4013 42.5971 62.2854 44.0107 60.4176C45.06 59.0314 45.0454 57.7619 43.9962 56.361C42.6117 54.537 42.6263 52.3774 44.0107 50.5534C45.06 49.1671 45.06 47.9122 44.0107 46.4968C42.6117 44.6144 42.6263 42.4986 44.0399 40.6308C45.0454 39.3175 45.0454 37.9896 44.069 36.6763C42.5971 34.7356 42.5971 32.6635 44.0836 30.7082C45.0454 29.4386 45.0454 28.0962 44.0836 26.8121C42.6117 24.8567 42.5971 22.7701 44.069 20.8439C45.06 19.5452 45.0454 18.2028 44.0399 16.9041C42.6117 15.0509 42.6117 12.8766 44.0107 11.038C45.0163 9.71017 45.0746 8.51362 44.1419 7.15655C43.8359 6.7042 43.763 6.26644 44.2293 5.91623C44.7102 5.55142 45.1037 5.79949 45.4389 6.20807C46.7067 7.78401 46.7213 10.0896 45.4535 11.7822C44.2293 13.4311 44.2439 14.4672 45.468 16.1161C46.7067 17.7942 46.7067 19.9684 45.468 21.6319C44.2439 23.2954 44.2293 24.3314 45.4535 25.9657C46.7359 27.7022 46.7213 29.8618 45.4097 31.5983C44.2876 33.0867 44.273 34.2978 45.4097 35.7716C46.0364 36.6325 46.357 37.5956 46.3861 38.6462Z" fill="#3166CD"/>
</svg>