<svg xmlns:xlink="http://www.w3.org/1999/xlink" xmlns="http://www.w3.org/2000/svg" width="155" height="97" viewBox="0 0 155 97" fill="none">
<g clip-path="url(#clip0)">
<path d="M60.8988 77.5045H0.620712C0.456145 77.5043 0.298369 77.4389 0.182003 77.3225C0.0656365 77.2061 0.000182496 77.0484 0 76.8838V18.123C0.000182496 17.9585 0.0656365 17.8007 0.182003 17.6843C0.298369 17.568 0.456145 17.5025 0.620712 17.5023H60.8988C61.0633 17.5025 61.2211 17.568 61.3375 17.6843C61.4539 17.8007 61.5193 17.9585 61.5195 18.123V76.8838C61.5193 77.0484 61.4539 77.2062 61.3375 77.3225C61.2211 77.4389 61.0633 77.5043 60.8988 77.5045V77.5045Z" fill="#F0F0F0"/>
<path d="M54.3468 22.8818H7.17266C7.00811 22.8821 6.85037 22.9476 6.73402 23.0639C6.61767 23.1803 6.55219 23.338 6.55194 23.5025V60.0556C6.55219 60.2202 6.61767 60.3779 6.73402 60.4942C6.85037 60.6106 7.00811 60.6761 7.17266 60.6763H54.3468C54.5114 60.6761 54.6691 60.6106 54.7854 60.4942C54.9018 60.3779 54.9673 60.2202 54.9675 60.0556V23.5025C54.9673 23.338 54.9018 23.1803 54.7854 23.0639C54.6691 22.9476 54.5114 22.8821 54.3468 22.8818V22.8818Z" fill="white"/>
<path d="M51.6571 67.849H9.86242C9.77099 67.8489 9.68335 67.8125 9.6187 67.7479C9.55405 67.6832 9.51769 67.5956 9.51758 67.5042V65.573C9.51769 65.4816 9.55405 65.394 9.6187 65.3293C9.68335 65.2647 9.77099 65.2283 9.86242 65.2282H51.6571C51.7485 65.2283 51.8361 65.2647 51.9008 65.3293C51.9654 65.394 52.0018 65.4816 52.0019 65.573V67.5042C52.0018 67.5956 51.9654 67.6832 51.9008 67.7479C51.8361 67.8125 51.7485 67.8489 51.6571 67.849V67.849Z" fill="white"/>
<path d="M37.1738 72.5388H9.86242C9.77099 72.5387 9.68335 72.5023 9.6187 72.4377C9.55405 72.3731 9.51769 72.2854 9.51758 72.194V70.2629C9.51769 70.1714 9.55405 70.0838 9.6187 70.0192C9.68335 69.9545 9.77099 69.9181 9.86242 69.918H37.1738C37.2652 69.9181 37.3528 69.9545 37.4175 70.0192C37.4821 70.0838 37.5185 70.1714 37.5186 70.2629V72.194C37.5185 72.2854 37.4821 72.3731 37.4175 72.4377C37.3528 72.5023 37.2652 72.5387 37.1738 72.5388Z" fill="white"/>
<path d="M29.5943 47.6508C32.9069 47.6508 35.5923 44.9654 35.5923 41.6528C35.5923 38.3402 32.9069 35.6548 29.5943 35.6548C26.2817 35.6548 23.5963 38.3402 23.5963 41.6528C23.5963 44.9654 26.2817 47.6508 29.5943 47.6508Z" fill="#FFB8B8"/>
<path d="M38.3697 60.6763H25.0713L25.5058 50.8993L25.6093 50.7904L27.1017 49.2139H31.8508L33.6108 50.9187L33.753 51.0566L37.5007 54.6486L38.3697 60.6763Z" fill="#3166CD"/>
<path d="M27.3582 60.6763H17.2972C17.2724 58.4693 17.2586 57.1479 17.2586 57.1479L17.8407 56.7934C17.8414 56.7926 17.8424 56.7921 17.8434 56.792H17.8448L24.2561 52.8994L25.6023 50.7131L25.6093 50.7904L26.0052 55.3988C26.0052 55.3988 26.6589 57.512 27.3582 60.6763Z" fill="#2F2E41"/>
<path d="M44.2678 60.6763H33.6109C33.7722 54.2402 32.9033 50.7131 33.3502 50.7131L33.6109 50.9187L36.7517 53.3988L40.8912 54.9174H40.8939L43.7478 55.9644L44.2485 56.1478V56.3837C44.2499 56.9492 44.2527 58.4955 44.2678 60.6763Z" fill="#2F2E41"/>
<path d="M23.9199 43.5294C23.9199 43.5294 24.4295 42.6345 24.311 39.6447C24.1925 36.655 28.7452 38.346 32.5494 38.0608C36.3536 37.7755 35.5484 43.0522 35.5484 43.0522C35.5484 43.0522 35.8228 42.7385 36.4104 40.1919C36.998 37.6452 35.6638 35.1073 35.6638 35.1073C35.2709 32.4313 33.1533 33.2889 33.1533 33.2889C34.1731 33.686 33.9773 34.5348 33.9773 34.5348C33.114 33.0213 30.9964 33.879 30.9964 33.879C28.1721 32.1067 25.3097 34.4406 25.3097 34.4406C21.8978 35.215 23.8987 37.9283 23.8987 37.9283C20.4675 39.6623 23.9199 43.5294 23.9199 43.5294Z" fill="#2F2E41"/>
<path d="M18.6407 60.6763H14.5067C14.5389 60.1669 14.5398 59.656 14.5095 59.1466C14.2625 58.1631 17.7358 56.8334 17.8406 56.7934C17.8413 56.7926 17.8423 56.7921 17.8434 56.792H17.8448L18.5068 57.1479L18.6407 60.6763Z" fill="#2F2E41"/>
<path d="M45.0141 60.6763H40.6718L40.1298 55.3243L40.738 54.8802C40.738 54.8802 40.7932 54.8926 40.8912 54.9174H40.8939C41.3808 55.0374 42.8871 55.4347 43.7478 55.9644C43.9393 56.0718 44.1091 56.214 44.2485 56.3837C44.3339 56.4861 44.3764 56.6176 44.3671 56.7506C44.3451 56.9506 44.5989 58.4238 45.0141 60.6763Z" fill="#2F2E41"/>
<path d="M153.706 60.0022H93.4276C93.263 60.002 93.1053 59.9366 92.9889 59.8202C92.8725 59.7038 92.8071 59.546 92.8069 59.3815V0.620712C92.8071 0.456145 92.8725 0.298373 92.9889 0.182006C93.1053 0.0656391 93.263 0.000183011 93.4276 0H153.706C153.87 0.000179933 154.028 0.0656325 154.144 0.182C154.261 0.298367 154.326 0.456144 154.326 0.620712V59.3815C154.326 59.5461 154.261 59.7038 154.144 59.8202C154.028 59.9366 153.87 60.002 153.706 60.0022V60.0022Z" fill="#F0F0F0"/>
<path d="M147.154 5.37964H99.9797C99.8151 5.37989 99.6574 5.44536 99.541 5.56172C99.4247 5.67807 99.3592 5.8358 99.3589 6.00035V42.5534C99.3592 42.718 99.4247 42.8757 99.541 42.9921C99.6574 43.1084 99.8151 43.1739 99.9797 43.1741H147.154C147.318 43.1739 147.476 43.1084 147.592 42.9921C147.709 42.8757 147.774 42.718 147.775 42.5534V6.00035C147.774 5.8358 147.709 5.67807 147.592 5.56172C147.476 5.44536 147.318 5.37989 147.154 5.37964V5.37964Z" fill="white"/>
<path d="M144.464 50.3467H102.669C102.578 50.3466 102.49 50.3102 102.426 50.2456C102.361 50.1809 102.325 50.0933 102.325 50.0018V48.0707C102.325 47.9793 102.361 47.8917 102.426 47.827C102.49 47.7624 102.578 47.726 102.669 47.7259H144.464C144.555 47.726 144.643 47.7624 144.708 47.827C144.772 47.8917 144.809 47.9793 144.809 48.0707V50.0018C144.809 50.0933 144.772 50.1809 144.708 50.2456C144.643 50.3102 144.555 50.3466 144.464 50.3467Z" fill="white"/>
<path d="M129.981 55.0366H102.669C102.578 55.0364 102.49 55.0001 102.426 54.9354C102.361 54.8708 102.325 54.7831 102.325 54.6917V52.7606C102.325 52.6692 102.361 52.5815 102.426 52.5169C102.49 52.4522 102.578 52.4159 102.669 52.4158H129.981C130.072 52.4159 130.16 52.4522 130.224 52.5169C130.289 52.5815 130.325 52.6692 130.326 52.7606V54.6917C130.325 54.7831 130.289 54.8708 130.224 54.9354C130.16 55.0001 130.072 55.0364 129.981 55.0366V55.0366Z" fill="white"/>
<path d="M135.178 43.1741C135.444 42.2154 135.651 41.3892 135.757 40.8043C135.79 40.624 135.794 40.4395 135.767 40.2581C135.37 37.4318 128.194 35.0428 127.274 34.7476L127.052 32.2868L118.02 31.3143L116.877 34.462L113.635 35.6773C113.518 35.7206 113.406 35.778 113.303 35.8483C113.031 36.0319 112.822 36.2944 112.704 36.6004C112.586 36.9065 112.564 37.2414 112.642 37.5601L114.023 43.1741H135.178V43.1741Z" fill="#3166CD"/>
<path d="M116.455 43.1741H109.446C109.697 41.6099 109.922 40.2264 110.068 39.3464C110.603 36.1435 112.937 35.8704 113.303 35.8483C113.332 35.8456 113.35 35.8456 113.351 35.8456H114.826L116.455 43.1741Z" fill="#3166CD"/>
<path d="M135.178 43.1741H136.877C136.727 41.7934 136.25 40.8637 135.767 40.2581C135.445 39.8324 135.029 39.4865 134.552 39.2471L134.424 39.1919L132.93 43.1741H135.178Z" fill="#3166CD"/>
<path d="M122.183 29.7568C125.775 29.7568 128.687 26.8452 128.687 23.2536C128.687 19.662 125.775 16.7504 122.183 16.7504C118.592 16.7504 115.68 19.662 115.68 23.2536C115.68 26.8452 118.592 29.7568 122.183 29.7568Z" fill="#A0616A"/>
<path d="M117.818 20.0853C118.492 20.882 119.631 21.1067 120.682 21.1981C122.816 21.3853 125.92 21.0817 128.005 20.6002C128.155 22.043 127.749 23.5987 128.598 24.7858C128.997 23.3488 129.228 21.8708 129.289 20.3808C129.314 19.7418 129.304 19.0808 129.045 18.4942C128.785 17.9076 128.219 17.4097 127.566 17.4045C128.051 17.0371 128.619 16.7945 129.219 16.6983L127.154 15.6606L127.684 15.1162L123.946 14.8875L125.029 14.1997C123.399 13.9758 121.749 13.9239 120.108 14.045C119.346 14.101 118.55 14.2082 117.933 14.6497C117.315 15.0912 116.959 15.9684 117.342 16.6164C116.862 16.6952 116.411 16.8951 116.03 17.1973C115.649 17.4995 115.352 17.8939 115.166 18.3431C114.891 19.0408 114.916 19.8157 115.001 20.5591C115.141 21.7481 115.418 22.917 115.824 24.0432" fill="#2F2E41"/>
<path d="M108.449 97H48.1711C48.0065 96.9998 47.8487 96.9343 47.7324 96.818C47.616 96.7016 47.5505 96.5438 47.5504 96.3793V37.6185C47.5505 37.4539 47.616 37.2962 47.7324 37.1798C47.8487 37.0634 48.0065 36.998 48.1711 36.9978H108.449C108.614 36.998 108.771 37.0634 108.888 37.1798C109.004 37.2962 109.07 37.4539 109.07 37.6185V96.3793C109.07 96.5438 109.004 96.7016 108.888 96.818C108.771 96.9343 108.614 96.9998 108.449 97V97Z" fill="#E4E4E4"/>
<path d="M101.897 42.3774H54.7231C54.5585 42.3777 54.4008 42.4432 54.2844 42.5595C54.1681 42.6759 54.1026 42.8336 54.1024 42.9982V79.5512C54.1026 79.7158 54.1681 79.8735 54.2844 79.9899C54.4008 80.1062 54.5585 80.1717 54.7231 80.1719H101.897C102.062 80.1717 102.219 80.1062 102.336 79.9899C102.452 79.8735 102.518 79.7158 102.518 79.5512V42.9982C102.518 42.8336 102.452 42.6759 102.336 42.5595C102.219 42.4432 102.062 42.3777 101.897 42.3774Z" fill="white"/>
<path d="M99.2074 87.3444H57.4128C57.3213 87.3443 57.2337 87.308 57.169 87.2433C57.1044 87.1787 57.068 87.091 57.0679 86.9996V85.0685C57.068 84.9771 57.1044 84.8894 57.169 84.8248C57.2337 84.7601 57.3213 84.7237 57.4128 84.7236H99.2074C99.2988 84.7237 99.3865 84.7601 99.4511 84.8248C99.5158 84.8894 99.5521 84.9771 99.5522 85.0685V86.9996C99.5521 87.091 99.5158 87.1787 99.4511 87.2433C99.3865 87.308 99.2988 87.3443 99.2074 87.3444V87.3444Z" fill="white"/>
<path d="M84.7241 92.0343H57.4128C57.3213 92.0342 57.2337 91.9978 57.169 91.9332C57.1044 91.8685 57.068 91.7809 57.0679 91.6895V89.7584C57.068 89.6669 57.1044 89.5793 57.169 89.5146C57.2337 89.45 57.3213 89.4136 57.4128 89.4135H84.7241C84.8155 89.4136 84.9032 89.45 84.9678 89.5146C85.0325 89.5793 85.0688 89.6669 85.0689 89.7584V91.6895C85.0688 91.7809 85.0325 91.8685 84.9678 91.9332C84.9032 91.9978 84.8155 92.0342 84.7241 92.0343V92.0343Z" fill="white"/>
<path d="M82.9516 80.1719H73.4575L74.0492 71.2916L77.4741 72.082L80.8053 70.8006L80.8936 70.7675L80.8991 70.7647C80.9003 70.7674 80.9012 70.7702 80.9019 70.773C80.9543 70.984 81.9998 75.1704 82.9516 80.1719Z" fill="#3166CD"/>
<path d="M88.6733 72.7413L87.7863 80.1718H79.7847L80.8054 70.8006L80.8151 70.7095L80.8937 70.7674L80.9019 70.7728L82.8758 72.213L88.6733 72.7413Z" fill="#2F2E41"/>
<path d="M74.8617 80.1719H67.696L67.5925 74.322L72.8658 72.573L74.0493 71.2916C74.0493 71.2916 74.4231 75.1469 74.8617 80.1719Z" fill="#2F2E41"/>
<path d="M92.1231 80.1719H86.1849L86.5657 74.8489L88.6733 72.7413C88.6733 72.7413 90.341 76.2393 92.1231 80.1719Z" fill="#2F2E41"/>
<path d="M69.3857 80.1719H66.2531C66.2669 78.4671 66.2752 77.2891 66.2752 76.9567C66.2595 76.4428 66.3716 75.9331 66.6015 75.4732C66.8315 75.0134 67.172 74.6178 67.5925 74.3221L69.1746 74.849L69.3857 80.1719Z" fill="#2F2E41"/>
<path d="M68.897 62.1505C68.9018 60.706 69.2815 59.2876 69.9989 58.0339C70.7163 56.7801 71.7469 55.7341 72.9898 54.9981C75.6304 53.4393 78.8164 53.4675 81.7305 55.0752C83.8067 56.2209 85.4959 59.1035 85.4959 61.5012V68.4972H68.897V62.1505Z" fill="#2F2E41"/>
<path d="M79.7435 67.59C82.6489 66.0018 83.7167 62.359 82.1285 59.4536C80.5402 56.5482 76.8974 55.4804 73.992 57.0687C71.0866 58.6569 70.0188 62.2997 71.6071 65.2051C73.1953 68.1105 76.8381 69.1782 79.7435 67.59Z" fill="#FFB8B8"/>
<path d="M70.6155 62.386C70.5701 62.3336 70.4638 62.2107 71.2033 56.5203L71.2268 56.4273H71.2936C75.0422 54.5832 78.8453 54.5369 82.5983 56.2888C82.7138 56.3437 82.8131 56.4276 82.8865 56.5323C82.9599 56.637 83.0048 56.759 83.0169 56.8864C83.4548 62.2326 83.349 62.3492 83.3038 62.399C83.235 62.4744 83.1513 62.5347 83.058 62.576C82.9647 62.6173 82.8638 62.6386 82.7618 62.6387H81.099L81.0641 62.5759C80.7786 62.0454 80.4654 61.5302 80.1257 61.0326C79.9695 61.5279 79.8416 62.0317 79.7426 62.5416L79.7223 62.6387H71.169C71.064 62.6387 70.9603 62.6162 70.8648 62.5726C70.7693 62.529 70.6843 62.4654 70.6155 62.386V62.386Z" fill="#2F2E41"/>
</g>
<defs>
<clipPath id="clip0">
<rect width="154.326" height="97" fill="white"/>
</clipPath>
</defs>
</svg>